# xmcd
#
# Track frame offsets: 
#        150
#        13155
#        27356
#        39519
#        51597
#        62140
#        73131
#        86786
#        97077
#        110977
#
# Disc length: 1619 seconds
#
# Revision: 0
# Processed by: cddbd v1.5PL3 Copyright (c) Steve Scherf et al.
# Submitted via: ExactAudioCopy v0.95a5
#
DISCID=9806510a
DTITLE=Charles, Ray - Sitting on Top of the World
DYEAR=1900
DGENRE=Blues
TTITLE0=Baby Won't You Please Come Home
TTITLE1=Blues is My Middle Name
TTITLE2=C.C. Rider
TTITLE3=Honey, Honey
TTITLE4=Hey Now
TTITLE5=I Wonder Who's Kissing Her Now
TTITLE6=I'm Going Down the River
TTITLE7=Sitting on Top of the World
TTITLE8=Someday
TTITLE9=They're Crazy 'Bout Me
EXTD=
EXTT0=
EXTT1=
EXTT2=
EXTT3=
EXTT4=
EXTT5=
EXTT6=
EXTT7=
EXTT8=
EXTT9=
PLAYORDER=
